{"title":"Cars 2 2011 TS XViD DTRG","uid":6506478,"size":1442196461,"categoryP":"video","categoryS":"movies","magnet":"?xt=urn:btih:7165901a919e818b9ca639cea9532aa57425153b&amp;dn=Cars+2+2011+TS+XViD+DTRG&amp;tr=udp%3A%2F%2Ftracker.openbittorrent.com%3A80&amp;tr=udp%3A%2F%2Fopen.demonii.com%3A1337&amp;tr=udp%3A%2F%2Ftracker.coppersurfer.tk%3A6969&amp;tr=udp%3A%2F%2Fexodus.desync.com%3A6969","seeders":0,"leechers":1,"uploader":"SAFCukO09","files":4,"time":1309439450,"description":"Format : AVI\nFormat/Info : Audio Video Interleave\nFile size : 1.34 GiB\nDuration : 1h 34mn\nOverall bit rate : 2 026 Kbps\nWriting library : VirtualDub build 32842/release\n\nVideo\nID : 0\nFormat : MPEG-4 Visual\nFormat profile : Advanced Simple@L5\nFormat settings, BVOP : 2\nFormat settings, QPel : No\nFormat settings, GMC : No warppoints\nFormat settings, Matrix : Default (H.263)\nMuxing mode : Packed bitstream\nCodec ID : XVID\nCodec ID/Hint : XviD\nDuration : 1h 34mn\nBit rate : 1 888 Kbps\nWidth : 720 pixels\nHeight : 304 pixels\nDisplay aspect ratio : 2.35:1\nFrame rate : 25.000 fps\nColor space : YUV\nChroma subsampling : 4:2:0\nBit depth : 8 bits\nScan type : Progressive\nCompression mode : Lossy\nBits/(Pixel*Frame) : 0.345\nStream size : 1.25 GiB (93%)\nWriting library : XviD 64\n\nAudio\nID : 1\nFormat : MPEG Audio\nFormat version : Version 1\nFormat profile : Layer 3\nMode : Joint stereo\nMode extension : MS Stereo\nCodec ID : 55\nCodec ID/Hint : MP3\nDuration : 1h 34mn\nBit rate mode : Constant\nBit rate : 128 Kbps\nChannel(s) : 2 channels\nSampling rate : 44.1 KHz\nCompression mode : Lossy\nStream size : 86.6 MiB (6%)\nAlignment : Split accross interleaves\nInterleave, duration : 40 ms (1.00 video frame)\nInterleave, preload duration : 500 ms\nWriting library : LAME3.98r\nEncoding settings : -m j -V 4 -q 2 -lowpass 17 -b 128\n\n\n\n\n\n &lt;a href=&quot;\nhttp://www.imdb.com/title/tt1216475/&quot; rel=&quot;nofollow&quot; target=&quot;_NEW&quot;&gt;\nhttp://www.imdb.com/title/tt1216475/&lt;/a&gt;\n\n\n\n\n\n\nUsers: (961 votes) 38 reviews | Critics: 18 reviews Metascore: 58/100 (based on 35 reviews from Metacritic.com)\n\n\nStar race car Lightning McQueen and his pal Mater head overseas to compete in the World Grand Prix race. But the road to the championship becomes rocky as Mater gets caught up in an intriguing adventure of his own: international espionage.\n\nDirectors: John Lasseter, Brad Lewis\nWriters: Ben Queen (screenplay), John Lasseter (story), and 2 more credits Ã‚Â»\nStars: Owen Wilson, Larry the Cable Guy and Michael Caine\n\n\n\n\n\n\n\n\n\n\n\n\n\n\n\n\n\n\n\n\n\n\n\nSource Used\n\n\n\nVIDEO: ........................... Cars2.TS.DVD.RELIZLAB....IMAGiNE ...Thanks\nAUDIO: ........................... IMAGiNE ..............................Thanks\n\n\n\nSame vid near enough as the previous upload this time using IMAGiNEs line which has abit static now and again but nothing major\n\n\nEnjoy\n\n\n\n\n\nGreetz to IMAGiNE,Flawl3ss,DiLLoN,BDK,NOiR,TOXiC,THC,Ez,Rx,Boobyblue,TaRiQ786,LKRG,\n\n\n\n\n\n &lt;a href=&quot;\nhttp://www.leetleech.org/images/35593285650626064450.png&quot; rel=&quot;nofollow&quot; target=&quot;_NEW&quot;&gt;\nhttp://www.leetleech.org/images/35593285650626064450.png&lt;/a&gt; &lt;a href=&quot;\nhttp://www.leetleech.org/images/67353918378668891791.png&quot; rel=&quot;nofollow&quot; target=&quot;_NEW&quot;&gt;\nhttp://www.leetleech.org/images/67353918378668891791.png&lt;/a&gt; &lt;a href=&quot;\nhttp://www.leetleech.org/images/17241281171596524610.png&quot; rel=&quot;nofollow&quot; target=&quot;_NEW&quot;&gt;\nhttp://www.leetleech.org/images/17241281171596524610.png&lt;/a&gt;","torrent":{"xt":"urn:btih:7165901a919e818b9ca639cea9532aa57425153b","amp;dn":"Cars+2+2011+TS+XViD+DTRG","amp;tr":["udp%3A%2F%2Ftracker.openbittorrent.com%3A80","udp%3A%2F%2Fopen.demonii.com%3A1337","udp%3A%2F%2Ftracker.coppersurfer.tk%3A6969","udp%3A%2F%2Fexodus.desync.com%3A6969"],"infoHash":"7165901a919e818b9ca639cea9532aa57425153b","infoHashBuffer":{"type":"Buffer","data":[113,101,144,26,145,158,129,139,156,166,57,206,169,83,42,165,116,37,21,59]},"announce":[],"urlList":[]}}